<svg width="24" height="24" viewBox="0 0 24 24" fill="none" xmlns="http://www.w3.org/2000/svg">
<path fill-rule="evenodd" clip-rule="evenodd" d="M8.57143 0C7.77578 0 7.01272 0.31607 6.45011 0.87868C5.8875 1.44129 5.57143 2.20435 5.57143 3V5.14286H3.42857C2.51926 5.14286 1.64719 5.50408 1.00421 6.14706C0.361224 6.79004 0 7.66211 0 8.57143V20.5714C0 21.4807 0.361224 22.3528 1.00421 22.9958C1.64719 23.6388 2.51926 24 3.42857 24H20.5714C21.4807 24 22.3528 23.6388 22.9958 22.9958C23.6388 22.3528 24 21.4807 24 20.5714V8.57143C24 7.66211 23.6388 6.79004 22.9958 6.14706C22.3528 5.50408 21.4807 5.14286 20.5714 5.14286H18.4286V3C18.4286 2.20435 18.1125 1.44129 17.5499 0.87868C16.9873 0.31607 16.2242 0 15.4286 0H8.57143ZM15.8571 5.14286V3C15.8571 2.88634 15.812 2.77733 15.7316 2.69695C15.6512 2.61658 15.5422 2.57143 15.4286 2.57143H8.57143C8.45776 2.57143 8.34876 2.61658 8.26838 2.69695C8.18801 2.77733 8.14286 2.88634 8.14286 3V5.14286H15.8571ZM3.42857 7.71429H20.5714C20.7988 7.71429 21.0168 7.80459 21.1775 7.96534C21.3383 8.12608 21.4286 8.3441 21.4286 8.57143V10.2857H2.57143V8.57143C2.57143 8.3441 2.66173 8.12608 2.82248 7.96534C2.98323 7.80459 3.20124 7.71429 3.42857 7.71429ZM2.57143 12.8571V20.5714C2.57143 20.7988 2.66173 21.0168 2.82248 21.1775C2.98323 21.3383 3.20124 21.4286 3.42857 21.4286H20.5714C20.7988 21.4286 21.0168 21.3383 21.1775 21.1775C21.3383 21.0168 21.4286 20.7988 21.4286 20.5714V12.8571H13.7143V15.4286H10.2857V12.8571H2.57143Z" fill="#5F134D"/>
</svg>
